<svg width="303" height="231" viewBox="0 0 303 231" fill="none" xmlns="http://www.w3.org/2000/svg">
<mask id="mask0_1_41" style="mask-type:luminance" maskUnits="userSpaceOnUse" x="0" y="0" width="303" height="231">
<path d="M302.83 0H0V230.64H302.83V0Z" fill="white"/>
</mask>
<g mask="url(#mask0_1_41)">
<path d="M74.39 111.41C75.39 100.72 82.15 96.01 89.71 91.77C104.643 83.39 119.507 74.897 134.3 66.29C143.89 60.74 153.54 56.29 165.5 64.21C165.5 52.55 165.95 42.5 165.34 32.52C164.91 25.4 152.34 21.12 144.82 25.24C136.82 29.56 129.06 34.17 121.2 38.69C90.66 56.26 60.22 74 29.5 91.28C23.16 94.84 19.86 98.7 20.7 106.21C21.33 111.86 20.8 117.63 20.83 123.36C20.83 128.66 20.08 133.99 25.23 138.09C26.65 139.23 27.11 143.54 26.12 145.36C23.34 150.46 24 155.7 24 161C24 169.38 24 177.75 24 186.75H10C10 177.53 10 168.53 10 159.54C10 154.93 10.49 150.46 8.07002 145.88C6.91002 143.69 7.93002 138.95 9.73002 136.88C12.73 133.37 12.96 129.77 12.9 125.73C12.703 121.691 12.736 117.645 13 113.61C13.82 105.44 12.7 98.92 4.18 94.61C-1.3 91.81 -1.14998 87.23 3.51002 83.09C6.88802 80.319 10.532 77.891 14.39 75.84C54.477 52.687 94.6 29.587 134.76 6.54C136.51 5.54 138.42 4.8 140.08 3.67C148.01 -1.72 155.69 -0.760015 163.64 3.86999C185.4 16.53 207.28 29 229.11 41.5C249.777 53.36 270.443 65.233 291.11 77.12C294.32 78.94 297.304 81.131 300 83.65C303.85 87.33 303.81 90.26 299.76 93.87C296.679 96.457 293.35 98.731 289.82 100.66C271.53 111.27 253.26 121.9 234.82 132.19C230.69 134.49 229.14 137.09 229.28 141.72C229.58 151.81 229.36 161.91 229.37 172C229.37 183.95 225.57 192.95 213.83 198.84C197.37 207.1 181.62 216.84 165.76 226.26C155.41 232.42 145.99 232 135.7 225.52C120.94 216.24 105.5 208.05 90.4 199.3C87.194 197.436 84.135 195.33 81.25 193C76.57 189.24 74.08 184.54 74.25 178.15C74.63 166.72 74.07 155.26 74.48 143.84C74.68 138.2 73.17 134.84 67.92 132.01C55.76 125.57 43.99 118.41 32.12 111.44C24.92 107.21 25.12 102.98 31.49 97.89C37.86 92.8 43.59 92.72 50.32 97.24C57.59 102.13 65.36 106.15 74.39 111.41ZM187.3 101.41C177.84 96 170 91.5 162.19 87C155.19 83 148.12 82.8 141.12 86.78C129.18 93.57 117.39 100.66 105.38 107.33C98.06 111.41 95.14 117.84 95 125.6C94.727 138.7 94.727 151.807 95 164.92C95.18 173.92 99.14 180.65 107.53 185.11C120.53 192.04 133.22 199.61 145.9 207.11C149.73 209.38 152.78 209.79 156.9 207.3C169.487 199.64 182.253 192.273 195.2 185.2C204.07 180.35 208.08 173.67 207.92 163.27C207.46 133.37 207.8 103.45 207.72 73.53C207.72 66.86 209.39 58.91 206.38 53.89C203.37 48.87 195.47 46.75 189.68 43.41C189.25 43.16 188.54 43.41 187.37 43.41L187.3 101.41ZM268.69 88.53L229.07 65.93V111.37L268.69 88.53Z" fill="url(#paint0_linear_1_41)"/>
<path d="M116.55 144.66C116.81 120.77 113.98 126.66 133.31 115.28C137.91 112.56 142.77 110.28 147.15 107.19C150.49 104.87 153.09 105.5 156.21 107.36C164.82 112.5 173.46 117.64 182.3 122.36C186.05 124.36 187.52 126.8 187.37 131.05C187.07 139.42 187.25 147.81 187.29 156.2C187.29 162.82 184.61 167.54 178.57 170.69C170.88 174.69 163.33 179.04 155.93 183.58C152.61 185.58 149.93 185.41 146.77 183.48C139.06 178.8 131.32 174.13 123.39 169.83C118.39 167.11 116.05 163.45 116.48 157.71C116.81 153.39 116.55 149 116.55 144.66Z" fill="url(#paint1_linear_1_41)"/>
</g>
<defs>
<linearGradient id="paint0_linear_1_41" x1="151.442" y1="-4.92618e-06" x2="151.442" y2="230.64" gradientUnits="userSpaceOnUse">
<stop stop-color="#7306FE"/>
<stop offset="1" stop-color="#C41DFF"/>
</linearGradient>
<linearGradient id="paint1_linear_1_41" x1="151.905" y1="105.693" x2="151.905" y2="185.006" gradientUnits="userSpaceOnUse">
<stop stop-color="#7306FE"/>
<stop offset="1" stop-color="#C41DFF"/>
</linearGradient>
</defs>
</svg>
